<svg xmlns="http://www.w3.org/2000/svg" width="1200" height="900" viewBox="0 0 1200 900">
  <defs>
    <linearGradient id="paper" x1="0" x2="1" y1="0" y2="1">
      <stop offset="0" stop-color="#ffffff"/>
      <stop offset="0.55" stop-color="#fbf7f1"/>
      <stop offset="1" stop-color="#f6f3ee"/>
    </linearGradient>
    <linearGradient id="frame" x1="0" x2="1" y1="0" y2="1">
      <stop offset="0" stop-color="#151515" stop-opacity="0.85"/>
      <stop offset="0.55" stop-color="#ff4d2e" stop-opacity="0.75"/>
      <stop offset="1" stop-color="#151515" stop-opacity="0.55"/>
    </linearGradient>
    <pattern id="weave" width="22" height="22" patternUnits="userSpaceOnUse" patternTransform="rotate(18)">
      <rect width="22" height="22" fill="#151515"/>
      <path d="M0 11H22" stroke="#ffffff" stroke-opacity="0.10" stroke-width="2"/>
      <path d="M11 0V22" stroke="#ffffff" stroke-opacity="0.10" stroke-width="2"/>
    </pattern>
    <filter id="shadow" x="-40%" y="-40%" width="180%" height="180%">
      <feDropShadow dx="0" dy="24" stdDeviation="18" flood-color="#151515" flood-opacity="0.14"/>
    </filter>
  </defs>

  <rect width="1200" height="900" fill="url(#paper)"/>

  <g opacity="0.34">
    <path d="M0 120H1200" stroke="#151515" stroke-opacity="0.14" stroke-width="2"/>
    <path d="M0 780H1200" stroke="#151515" stroke-opacity="0.10" stroke-width="2"/>
    <path d="M140 0V900" stroke="#151515" stroke-opacity="0.10" stroke-width="2"/>
    <path d="M1060 0V900" stroke="#151515" stroke-opacity="0.10" stroke-width="2"/>
  </g>

  <g filter="url(#shadow)">
    <path
      d="M640 110c-176 0-318 142-318 318 0 162 121 296 279 315v70c0 22 18 40 40 40h60c22 0 40-18 40-40v-70c158-19 279-153 279-315 0-176-142-318-320-318z"
      fill="none"
      stroke="url(#frame)"
      stroke-width="22"
      stroke-linecap="round"
      opacity="0.98"
    />
    <path
      d="M640 142c-158 0-286 128-286 286 0 156 124 283 279 286h14c155-3 279-130 279-286 0-158-128-286-286-286z"
      fill="url(#weave)"
      opacity="0.96"
    />

    <g opacity="0.92">
      <circle cx="535" cy="312" r="10" fill="#ffffff" fill-opacity="0.36"/>
      <circle cx="610" cy="290" r="10" fill="#ffffff" fill-opacity="0.36"/>
      <circle cx="685" cy="312" r="10" fill="#ffffff" fill-opacity="0.36"/>
      <circle cx="515" cy="390" r="10" fill="#ffffff" fill-opacity="0.36"/>
      <circle cx="590" cy="372" r="10" fill="#ffffff" fill-opacity="0.36"/>
      <circle cx="665" cy="372" r="10" fill="#ffffff" fill-opacity="0.36"/>
      <circle cx="740" cy="390" r="10" fill="#ffffff" fill-opacity="0.36"/>
      <circle cx="535" cy="468" r="10" fill="#ffffff" fill-opacity="0.36"/>
      <circle cx="610" cy="490" r="10" fill="#ffffff" fill-opacity="0.36"/>
      <circle cx="685" cy="490" r="10" fill="#ffffff" fill-opacity="0.36"/>
      <circle cx="515" cy="546" r="10" fill="#ffffff" fill-opacity="0.36"/>
      <circle cx="590" cy="528" r="10" fill="#ffffff" fill-opacity="0.36"/>
      <circle cx="665" cy="528" r="10" fill="#ffffff" fill-opacity="0.36"/>
      <circle cx="740" cy="546" r="10" fill="#ffffff" fill-opacity="0.36"/>
    </g>

    <path
      d="M640 645c-34 0-62 28-62 62v128c0 20 16 36 36 36h52c20 0 36-16 36-36V707c0-34-28-62-62-62z"
      fill="#151515"
      stroke="rgba(21,21,21,0.30)"
      stroke-width="2"
    />
    <path d="M603 763h74" stroke="#ff4d2e" stroke-opacity="0.78" stroke-width="8" stroke-linecap="round"/>
    <path d="M603 804h74" stroke="#151515" stroke-opacity="0.60" stroke-width="8" stroke-linecap="round"/>
  </g>

  <g opacity="0.6">
    <path
      d="M250 720c98-132 224-205 379-220"
      fill="none"
      stroke="#151515"
      stroke-opacity="0.14"
      stroke-width="2"
      stroke-linecap="round"
    />
    <path
      d="M945 720c-90-122-208-194-352-216"
      fill="none"
      stroke="#151515"
      stroke-opacity="0.12"
      stroke-width="2"
      stroke-linecap="round"
    />
  </g>
</svg>

